# xmcd CD database file
#
# Track frame offsets:
#	150
#	21705
#	48200
#	67940
#	87912
#	100335
#	128050
#	148842
#	161555
#
# Disc length: 2585 seconds
#
# Revision: 0
# Processed by: cddbd v1.5.1PL2 Copyright (c) Steve Scherf et al.
# Submitted via: CDex 1.51
#
DISCID=790a1709
DTITLE=Pepe California - The Nice Nice
DYEAR=2002
DGENRE=World
TTITLE0=Freedom
TTITLE1=Young Whistle Young
TTITLE2=Bikini Rocks
TTITLE3=Get Up!(Clap Your Hands)
TTITLE4=Yoyogi Island Resort
TTITLE5=In The Sun
TTITLE6=Frappe
TTITLE7=Three Feet
TTITLE8=Goodbye Fruity World
EXTD=YEAR: 2002
EXTT0=
EXTT1=
EXTT2=
EXTT3=
EXTT4=
EXTT5=
EXTT6=
EXTT7=
EXTT8=
PLAYORDER=
